<?xml version="1.0" standalone="no"?>
<!DOCTYPE svg PUBLIC "-//W3C//DTD SVG 20010904//EN"
 "http://www.w3.org/TR/2001/REC-SVG-20010904/DTD/svg10.dtd">
<svg version="1.0" xmlns="http://www.w3.org/2000/svg"
 width="1000.000000pt" height="1000.000000pt" viewBox="0 0 1000.000000 1000.000000"
 preserveAspectRatio="xMidYMid meet">

<g transform="translate(0.000000,1000.000000) scale(0.100000,-0.100000)"
fill="#000000" stroke="none">
<path d="M2325 9224 c-251 -30 -455 -94 -695 -221 -497 -262 -821 -635 -985
-1138 -139 -423 -139 -833 -1 -1250 98 -294 240 -525 461 -754 264 -273 576
-453 948 -547 195 -50 266 -54 837 -47 l527 6 7 -99 c4 -54 6 -568 5 -1140 -3
-861 -1 -1044 10 -1058 12 -14 66 -16 521 -16 280 0 515 3 524 6 14 6 16 117
16 1155 l0 1149 550 0 550 0 0 -1139 c0 -1023 2 -1141 16 -1155 14 -14 75 -16
528 -16 461 0 515 2 527 16 11 14 13 197 10 1058 -1 572 1 1085 5 1139 l7 99
581 -3 581 -3 120 27 c421 97 748 277 1030 568 221 229 363 460 461 754 138
417 138 827 -1 1250 -163 499 -484 872 -975 1134 -422 225 -804 280 -1275 186
-278 -56 -591 -187 -794 -332 -392 -282 -680 -728 -775 -1203 -39 -192 -46
-325 -46 -842 l0 -478 -545 0 -545 0 0 478 c0 262 -5 531 -11 597 -43 501
-251 937 -613 1282 -138 132 -261 218 -440 308 -230 116 -502 196 -768 224
-90 10 -284 13 -353 5z m425 -1113 c163 -43 314 -134 431 -259 83 -88 125
-153 174 -269 62 -145 65 -176 65 -743 l0 -510 -277 1 c-458 1 -756 14 -838
37 -159 44 -290 117 -403 226 -275 262 -354 672 -197 1013 129 280 385 476
683 523 87 14 276 4 362 -19z m5060 0 c262 -70 479 -253 595 -504 109 -235
107 -511 -6 -746 -118 -249 -338 -430 -600 -494 -117 -29 -250 -36 -681 -37
l-428 0 0 510 c0 567 3 598 65 743 49 116 91 181 174 269 139 148 322 247 519
278 87 14 276 4 362 -19z"/>
<path d="M1415 2348 c-3 -13 -4 -77 -3 -143 l3 -120 165 -5 165 -5 5 -545 c3
-300 6 -546 8 -548 1 -1 75 -1 165 0 l162 3 2 534 c1 293 4 540 7 547 4 11 36
14 145 14 l140 0 42 132 c22 72 43 137 46 145 4 11 -87 13 -521 13 l-526 0 -5
-22z"/>
<path d="M3767 2364 c-10 -10 -8 -1356 1 -1372 7 -9 46 -12 163 -10 l154 3 5
175 c3 106 10 183 17 195 21 37 71 78 87 72 8 -3 81 -105 162 -227 l147 -220
179 0 c98 0 178 3 178 6 0 3 -99 147 -221 320 -121 174 -223 322 -226 331 -4
11 53 73 198 214 l204 199 -196 -3 -196 -2 -164 -158 -164 -158 -5 318 -5 318
-156 3 c-85 1 -158 -1 -162 -4z"/>
<path d="M4965 2348 c-3 -13 -4 -77 -3 -143 l3 -120 165 -5 165 -5 5 -545 c3
-300 6 -546 8 -548 1 -1 75 -1 165 0 l162 3 2 534 c1 293 4 540 7 547 4 11 36
14 145 14 l140 0 42 132 c22 72 43 137 46 145 4 11 -87 13 -521 13 l-526 0 -5
-22z"/>
<path d="M7317 2364 c-10 -10 -8 -1356 1 -1372 7 -9 46 -12 163 -10 l154 3 5
175 c3 106 10 183 17 195 21 37 71 78 87 72 8 -3 81 -105 162 -227 l147 -220
179 0 c98 0 178 3 178 6 0 3 -99 147 -221 320 -121 174 -223 322 -226 331 -4
11 53 73 198 214 l204 199 -196 -3 -196 -2 -164 -158 -164 -158 -5 318 -5 318
-156 3 c-85 1 -158 -1 -162 -4z"/>
<path d="M2935 2109 c-215 -21 -404 -171 -476 -379 -30 -88 -37 -224 -15 -310
53 -212 224 -383 423 -425 200 -43 387 12 533 156 112 111 160 231 160 402 0
162 -56 295 -170 401 -129 121 -280 172 -455 155z m195 -325 c85 -46 138 -133
139 -230 3 -205 -208 -340 -392 -251 -99 49 -151 132 -151 242 1 82 17 126 70
185 62 68 118 91 215 86 50 -2 79 -10 119 -32z"/>
<path d="M6485 2109 c-215 -21 -404 -171 -476 -379 -30 -88 -37 -224 -15 -310
53 -212 224 -383 423 -425 200 -43 387 12 533 156 112 111 160 231 160 402 0
162 -56 295 -170 401 -129 121 -280 172 -455 155z m195 -325 c85 -46 138 -133
139 -230 3 -205 -208 -340 -392 -251 -99 49 -151 132 -151 242 1 82 17 126 70
185 62 68 118 91 215 86 50 -2 79 -10 119 -32z"/>
</g>
</svg>
